<?xml version="1.0" encoding="UTF-8"?>
<!DOCTYPE svg PUBLIC "-//W3C//DTD SVG 1.1//EN" "http://www.w3.org/Graphics/SVG/1.1/DTD/svg11.dtd">
<!-- Creator: CorelDRAW 2020 (64 Bit) -->
<svg xmlns="http://www.w3.org/2000/svg" xml:space="preserve" width="43.6362mm" height="11.5976mm" version="1.1" style="shape-rendering:geometricPrecision; text-rendering:geometricPrecision; image-rendering:optimizeQuality; fill-rule:evenodd; clip-rule:evenodd"
viewBox="0 0 4363.62 1159.76"
 xmlns:xlink="http://www.w3.org/1999/xlink"
 xmlns:xodm="http://www.corel.com/coreldraw/odm/2003">
 <defs>
  <style type="text/css">
   <![CDATA[
    .str0 {stroke:#0D114F;stroke-width:35.28;stroke-miterlimit:22.9256}
    .fil3 {fill:#FEFEFE;fill-rule:nonzero}
    .fil0 {fill:#0D114F;fill-rule:nonzero}
    .fil1 {fill:#2D81FF;fill-rule:nonzero}
    .fil2 {fill:url(#id0);fill-rule:nonzero}
   ]]>
  </style>
  <linearGradient id="id0" gradientUnits="userSpaceOnUse" x1="1373.22" y1="-1741.91" x2="500.09" y2="1274.33">
   <stop offset="0" style="stop-opacity:1; stop-color:#5498FF"/>
   <stop offset="0.509804" style="stop-opacity:1; stop-color:#428EFF"/>
   <stop offset="1" style="stop-opacity:1; stop-color:#297FFF"/>
  </linearGradient>
 </defs>
 <g id="Camada_x0020_1">
  <metadata id="CorelCorpID_0Corel-Layer"/>
  <g id="_1459897655632">
   <g>
    <path class="fil0 str0" d="M1405.75 371.75l129.93 0 0 304.66c0,23.99 1.63,42.34 4.87,55.04 3.07,12.7 8.3,21.44 15.34,26.52 7.05,4.94 18.95,7.34 35.91,7.34l0 67.03c-22.55,5.5 -45.29,8.33 -68.22,8.33 -38.8,0 -68.03,-10.45 -88.06,-31.33 -19.85,-20.74 -29.77,-50.66 -29.77,-89.47l0 -348.12zm-12.28 -134.05c0,-17.93 7.4,-32.6 22.02,-43.89 14.62,-11.29 33.38,-16.93 56.3,-16.93 21.84,0 40.25,5.5 55.23,16.37 14.98,10.86 22.55,25.68 22.55,44.45 0,18.48 -7.21,33.3 -21.29,44.45 -14.07,11.14 -32.49,16.65 -55.4,16.65 -22.56,0 -41.5,-5.51 -56.67,-16.51 -15.16,-11.01 -22.74,-25.97 -22.74,-44.59zm938.97 647.13l0 82.27c-38.44,16.23 -81.56,24.41 -129.57,24.41 -66.6,0 -125.8,-13.54 -177.77,-40.5 -52.15,-26.95 -98.7,-68.15 -139.86,-123.61 -72,-20.6 -125.78,-55.74 -161.51,-105.41 -35.91,-49.53 -53.78,-112.32 -53.78,-188.38 0,-62.09 14.07,-117.27 42.41,-165.53 28.15,-48.4 67.86,-86.08 118.92,-113.17 51.08,-26.95 108.47,-40.5 172.35,-40.5 67.68,0 126.33,12 175.78,35.84 49.44,23.85 87.34,58.71 113.69,104.71 26.17,46 39.34,101.32 39.34,165.81 0,58.42 -12.45,110.91 -37.53,157.62 -25.09,46.71 -61.01,83.96 -107.93,111.76 -46.74,27.8 -100.7,43.6 -161.69,47.13l0 3.39c18.41,19.75 41.86,34.85 70.56,45.01 28.7,10.16 67.31,15.24 115.49,15.24 38.81,0 77.43,-5.36 115.87,-16.09l5.23 0zm-328.81 -584.76c-60.28,0 -107.56,21.02 -141.66,63.21 -34.29,42.2 -51.26,98.92 -51.26,170.19 0,67.59 16.79,121.35 50.35,161.57 33.75,40.36 80.13,60.39 139.32,60.39 59.2,0 105.93,-21.16 140.23,-63.5 34.11,-42.19 51.24,-99.34 51.24,-171.16 0,-69.71 -16.42,-123.9 -49.26,-162.71 -32.66,-38.66 -79.05,-57.99 -138.96,-57.99zm614.85 540.6c-51.44,0 -91.15,-14.12 -118.76,-42.06 -27.61,-27.94 -41.5,-67.31 -41.5,-117.97l0 -308.89 129.58 0 0 274.18c0,37.4 4.5,64.77 13.53,81.99 8.84,17.21 25.08,25.82 48.37,25.82 38.98,0 69.66,-23.56 91.67,-70.84 22.02,-47.27 33.03,-115.43 33.03,-204.47l0 -106.68 128.49 0 0 298.03c0,25.68 1.62,45.16 4.69,58.56 3.25,13.41 8.48,22.72 15.7,28.08 7.22,5.36 19.67,8.05 37.17,8.05l0 66.18c-24.9,5.5 -47.64,8.32 -68.21,8.32 -35.2,0 -62.62,-8.32 -82.11,-24.83 -19.68,-16.51 -29.78,-39.51 -30.5,-69.01l-4.15 0c-13.36,31.33 -32.85,55.18 -58.48,71.26 -25.43,16.09 -58.47,24.28 -98.52,24.28zm557.27 -266.56c68.76,0 117.48,-6.21 146.18,-18.49 28.7,-12.28 43.14,-33.16 43.14,-62.65 0,-14.68 -4.52,-26.67 -13.55,-35.99 -9.01,-9.45 -23.45,-14.11 -43.67,-14.11 -22.92,0 -43.85,5.08 -62.79,15.24 -19.13,10.3 -34.84,25.26 -47.1,45.02 -12.28,19.75 -19.67,43.32 -22.21,70.98zm2.17 73.94c3.07,33.58 16.97,60.11 41.51,79.3 24.36,19.34 57.02,28.93 97.99,28.93 17.33,0 33.39,-1.13 48.19,-3.24 14.79,-2.26 28.87,-5.23 42.22,-8.75 13.36,-3.53 34.11,-10.87 62.44,-21.88l5.24 0 0 81.85c-32.12,13.55 -62.27,22.86 -90.41,28.22 -28.15,5.5 -59.74,8.19 -94.57,8.19 -49.08,0 -92.22,-8.89 -129.57,-26.53 -37.36,-17.64 -66.24,-43.04 -86.81,-76.2 -20.39,-33.31 -30.67,-72.68 -30.67,-118.11 0,-51.23 11.37,-96.52 34.11,-135.61 22.74,-39.09 54.85,-69.29 96.36,-90.31 41.32,-21.17 88.07,-31.61 140.22,-31.61 54.33,0 97.63,11.43 130.11,34.29 32.49,22.86 48.73,53.62 48.73,92.28 0,52.92 -25.26,92.71 -75.43,119.24 -50.17,26.67 -124.35,39.94 -222.34,39.94l-17.32 0zm408.04 -152.68c0,-26.96 7.93,-50.38 23.63,-70.14 15.71,-19.61 37.36,-34.99 65.33,-45.86 27.79,-10.86 59.56,-16.37 95.11,-16.37 29.59,0 56.84,1.55 81.74,4.38 24.74,2.96 50.18,8.04 76.34,15.52l0 83.54 -4.32 0c-22.2,-6.92 -44.4,-12.56 -66.59,-16.94 -22.2,-4.37 -47.1,-6.63 -75.09,-6.63 -46.19,0 -69.11,14.11 -69.11,42.19 0,13.69 7.77,26.39 23.46,37.96 15.7,11.57 46.92,27.94 93.84,48.83 38.45,17.07 67.5,36.69 87.53,58.7 19.85,22.01 29.77,46.99 29.77,74.79 0,43.6 -16.78,77.33 -50.71,101.32 -33.75,23.99 -80.67,35.98 -140.57,35.98 -30.32,0 -61.54,-2.54 -93.67,-7.62 -32.12,-5.08 -60.45,-12.42 -85,-22.15l0 -81.42 4.15 0c33.2,11.57 62.26,19.61 87.53,23.98 25.08,4.38 48.72,6.64 70.55,6.64 53.6,0 80.32,-16.37 80.32,-49.25 0,-21.73 -24.54,-44.03 -74,-66.89 -45.12,-20.74 -77.6,-37.82 -97.45,-51.08 -20.03,-13.41 -35.37,-28.36 -46.37,-44.87 -10.83,-16.51 -16.42,-34.72 -16.42,-54.61zm492.84 -47.56l-73.64 0 0 -40.5 73.64 -34.71 0 -125.17 129.94 -11.99 0 136.31 147.07 0 0 76.06 -147.07 0 0 234.81c0,51.37 20.2,76.91 60.27,76.91 29.6,0 59.01,-4.8 87.89,-14.4l4.15 0 0 70.28c-35.91,16.79 -76.33,25.26 -121.09,25.26 -50,0 -89.33,-12.28 -118.21,-36.83 -28.69,-24.56 -42.95,-58.99 -42.95,-103.44l0 -252.59z"/>
    <path class="fil1" d="M2380.84 964.15c-11.15,11.36 -25.08,17.05 -41.81,17.05 -16.71,0 -30.85,-5.69 -42.4,-17.05 -11.14,-11.36 -16.73,-24.88 -16.73,-40.55 0,-16.07 5.59,-29.58 16.73,-40.55 11.55,-11.37 25.69,-17.05 42.4,-17.05 16.73,0 30.66,5.68 41.81,17.05 11.56,10.97 17.33,24.48 17.33,40.55 0,15.67 -5.77,29.19 -17.33,40.55z"/>
   </g>
   <g>
    <path class="fil2" d="M206.13 4.34l742.22 0c115.28,0 208.76,93.48 208.76,208.75l-0.01 742.22c0.01,115.26 -93.47,208.74 -208.74,208.74l-742.23 0.01c-115.26,-0.01 -208.74,-93.49 -208.74,-208.76l-0.01 -742.21c0.01,-115.27 93.49,-208.75 208.76,-208.75l-0.01 0zm-113.87 138.23l948.93 0 0 841.45 -948.93 0 0 -841.45z"/>
    <path class="fil3" d="M520.96 479.51l168.3 0 0 394.6c0,31.07 2.1,54.83 6.31,71.28 3.97,16.45 10.75,27.78 19.87,34.36 9.12,6.4 24.54,9.51 46.51,9.51l0 86.81c-29.22,7.13 -58.67,10.78 -88.35,10.78 -50.25,0 -88.12,-13.52 -114.07,-40.57 -25.7,-26.87 -38.57,-65.62 -38.57,-115.88l0 -450.89zm-15.88 -173.63c0,-23.21 9.57,-42.22 28.5,-56.84 18.94,-14.62 43.25,-21.93 72.94,-21.93 28.27,0 52.12,7.13 71.53,21.2 19.4,14.08 29.21,33.27 29.21,57.57 0,23.95 -9.35,43.14 -27.59,57.58 -18.22,14.43 -42.06,21.56 -71.76,21.56 -29.21,0 -53.75,-7.13 -73.38,-21.38 -19.64,-14.26 -29.45,-33.63 -29.45,-57.76z"/>
    <path class="fil3" d="M613.6 96.6c137.63,0 245.22,34.61 322.78,103.83 77.85,68.98 116.63,167.51 116.63,295.34 0,140.98 -41.36,252.4 -124.06,333.75 -82.72,81.35 -194.52,122.28 -335.07,122.28 -137.64,0 -244.91,-34.87 -322.45,-104.09 -77.23,-69.48 -115.99,-168.01 -115.99,-295.85 0,-141.98 40.38,-253.4 120.84,-333.99 80.44,-80.85 192.88,-121.27 337.32,-121.27zm-15.84 711.44c71.72,0 126.01,-26.53 162.53,-79.83 36.83,-53.31 54.91,-130.87 54.91,-232.44 0,-81.09 -17.76,-143.75 -53.3,-187.96 -35.54,-44.47 -86.6,-66.7 -152.83,-66.7 -69.47,0 -123.11,27.03 -160.59,81.1 -37.47,53.81 -56.22,130.62 -56.22,229.65 0,79.08 18.1,141.48 54.93,187.46 36.51,45.73 86.59,68.72 150.57,68.72z"/>
   </g>
  </g>
 </g>
</svg>
